# xmcd
#
# Track frame offsets:
#	150
#	22885
#	46377
#	61465
#	79227
#	97232
#	115400
#	131242
#	151685
#	174397
#	197884
#	212975
#	230750
#	248720
#	266890
#	282675
#
# Disc length: 4042 seconds
#
# Revision: 2
# Processed by: cddbd v1.4PL0 Copyright (c) Steve Scherf et al.
# Submitted via: audiograbber 1.82.02
#
DISCID=f50fc810
DTITLE=Various Artist - SC-2036
DYEAR=1900
DGENRE=Country
TTITLE0=Judd, Wynonna - She Is His Only Need
TTITLE1=Judd, Wynonna - To Be Loved By You
TTITLE2=Judd, Wynonna - Rock Bottom
TTITLE3=Judd, Wynonna - Only Love
TTITLE4=Judd, Wynonna - Tell Me Why
TTITLE5=Judd, Wynonna - I Saw The Light
TTITLE6=Judd, Wynonna - Girls With Guitars
TTITLE7=Judd, Wynonna - My Strongest Weakness
TTITLE8=Judd, Wynonna - She Is His Only Need
TTITLE9=Judd, Wynonna - To Be Loved By You
TTITLE10=Judd, Wynonna - Rock Bottom
TTITLE11=Judd, Wynonna - Only Love
TTITLE12=Judd, Wynonna - Tell Me Why
TTITLE13=Judd, Wynonna - I Saw The Light
TTITLE14=Judd, Wynonna - Girls With Guitars
TTITLE15=Judd, Wynonna - My Strongest Weakness
EXTD=
EXTT0=
EXTT1=
EXTT2=
EXTT3=
EXTT4=
EXTT5=
EXTT6=
EXTT7=
EXTT8=
EXTT9=
EXTT10=
EXTT11=
EXTT12=
EXTT13=
EXTT14=
EXTT15=
PLAYORDER=
